<svg width="755" height="548" viewBox="0 0 755 548" fill="none" xmlns="http://www.w3.org/2000/svg">
  <path fill-rule="evenodd" clip-rule="evenodd" d="M110.182 0.522781C107.199 -0.819019 103.693 0.51118 102.352 3.49398C101.937 4.41448 101.778 5.38488 101.843 6.32598L20.8344 18.6569C20.3274 17.1464 19.2164 15.8435 17.6484 15.1383C14.666 13.7964 11.1601 15.1267 9.81822 18.1095C8.47642 21.0923 9.80662 24.5982 12.7894 25.9401C14.9874 26.929 17.4704 26.4666 19.1604 24.9611L62.0704 79.3087C61.7774 79.6807 61.5254 80.0937 61.3224 80.5447C60.3244 82.7637 60.8044 85.2717 62.3444 86.9637L9.00092 148.193C8.79482 148.068 8.57882 147.954 8.35332 147.853C5.37052 146.511 1.86472 147.841 0.522824 150.824C-0.819076 153.807 0.511223 157.313 3.49402 158.655C6.47682 159.997 9.98272 158.666 11.3246 155.684C11.4813 155.335 11.6016 154.979 11.6871 154.621L71.1984 181.393C70.3784 184.186 71.7244 187.227 74.4544 188.455C74.8394 188.628 75.2324 188.757 75.6294 188.843L72.3264 242.579C70.5184 242.944 68.9074 244.145 68.0924 245.956C66.7504 248.939 68.0814 252.445 71.0634 253.786C73.5994 254.927 76.5124 254.137 78.1534 252.042L175.369 301.78C174.748 304.477 176.093 307.325 178.713 308.503C181.696 309.845 185.202 308.515 186.544 305.532C187.056 304.394 187.179 303.179 186.969 302.037L252.538 287.599C253.099 288.926 254.144 290.053 255.562 290.691C256.754 291.227 258.029 291.336 259.217 291.084L277.36 328.826C276.668 329.389 276.093 330.118 275.702 330.987C274.36 333.97 275.69 337.476 278.673 338.818C280.326 339.562 282.14 339.484 283.657 338.76L340.463 386.25C340.425 386.326 340.389 386.403 340.354 386.481C339.012 389.464 340.342 392.969 343.325 394.311C346.308 395.653 349.813 394.323 351.155 391.34C351.181 391.284 351.205 391.227 351.229 391.171L436.603 398.573C437.199 399.678 438.15 400.603 439.384 401.158C441.867 402.275 444.712 401.541 446.37 399.543L488.717 427.327C488.573 427.557 488.443 427.799 488.328 428.054C486.986 431.037 488.316 434.542 491.299 435.884C493.462 436.857 495.9 436.425 497.589 434.977L592.293 488.915C591.354 491.759 592.698 494.911 595.49 496.167C597.343 497 599.397 496.803 601.01 495.818L642.504 538.368C642.217 538.736 641.969 539.144 641.769 539.588C640.428 542.571 641.758 546.077 644.741 547.418C647.724 548.76 651.229 547.43 652.571 544.447C652.985 543.527 653.145 542.556 653.08 541.615L734.09 529.284C734.596 530.794 735.707 532.097 737.275 532.802C740.258 534.144 743.764 532.814 745.105 529.831C746.447 526.848 745.117 523.342 742.134 522C739.936 521.011 737.453 521.474 735.762 522.98L692.854 468.633C693.146 468.261 693.398 467.848 693.601 467.397C694.599 465.178 694.119 462.669 692.579 460.977L745.922 399.748C746.129 399.873 746.345 399.987 746.57 400.088C749.553 401.43 753.059 400.1 754.401 397.117C755.743 394.134 754.413 390.628 751.43 389.286C748.447 387.945 744.941 389.275 743.599 392.258C743.442 392.606 743.322 392.962 743.237 393.32L683.725 366.548C684.545 363.755 683.199 360.714 680.469 359.486C680.084 359.313 679.69 359.184 679.294 359.098L682.596 305.362C684.405 304.998 686.017 303.796 686.831 301.985C688.173 299.002 686.843 295.497 683.86 294.155C681.324 293.014 678.411 293.804 676.77 295.899L579.554 246.162C580.176 243.465 578.83 240.617 576.21 239.438C573.228 238.096 569.722 239.426 568.38 242.409C567.868 243.548 567.745 244.762 567.954 245.904L502.385 260.342C501.824 259.015 500.779 257.888 499.361 257.25C496.521 255.973 493.206 257.118 491.737 259.805L419.959 251.889C419.923 251.052 419.71 250.233 419.339 249.49L469.584 218.664C470.087 219.18 470.694 219.612 471.391 219.925C474.374 221.267 477.88 219.937 479.222 216.954C480.564 213.971 479.233 210.465 476.251 209.123C474.597 208.38 472.783 208.457 471.266 209.181L414.46 161.692C414.498 161.616 414.535 161.539 414.57 161.461C415.912 158.478 414.581 154.972 411.599 153.63C408.616 152.289 405.11 153.619 403.768 156.602C403.743 156.658 403.719 156.714 403.695 156.77L318.321 149.368C317.725 148.263 316.774 147.337 315.539 146.782C313.219 145.738 310.581 146.312 308.893 148.023L266.454 120.179C266.504 120.083 266.551 119.986 266.595 119.887C267.937 116.904 266.607 113.398 263.624 112.056C261.328 111.023 258.722 111.574 257.031 113.243L182.384 79.6607C183.316 76.8197 181.972 73.6747 179.184 72.4197C177.201 71.5287 174.988 71.8167 173.332 72.9867L112.395 9.60318C112.692 9.22778 112.948 8.80988 113.153 8.35338C114.495 5.37048 113.165 1.86468 110.182 0.522781ZM734.489 524.595L691.364 469.974C689.936 470.875 688.148 471.151 686.458 470.628L650.895 537.412C651.651 538.022 652.231 538.799 652.605 539.664L733.781 527.308C733.793 526.525 733.962 525.731 734.304 524.972C734.361 524.843 734.423 524.717 734.489 524.595ZM643.986 537.023C645.484 536.07 647.383 535.807 649.149 536.435L684.672 469.725C683.838 469.108 683.198 468.293 682.791 467.378L603.836 490.489C603.879 491.391 603.716 492.316 603.32 493.195C603.105 493.674 602.834 494.11 602.518 494.5L643.986 537.023ZM675.819 297.66L578.781 248.013C578.447 248.542 578.038 249.003 577.574 249.388L603.111 296.445C604.268 296.222 605.502 296.341 606.657 296.861C608.475 297.679 609.679 299.3 610.038 301.116L675.567 298.709C675.618 298.357 675.702 298.006 675.819 297.66ZM675.621 300.709L610.089 303.116C610.012 303.647 609.86 304.177 609.628 304.692C609.488 305.003 609.325 305.296 609.141 305.57L674.507 360.133C675.325 359.526 676.287 359.14 677.295 359.011L680.589 305.419C680.053 305.342 679.519 305.19 679.001 304.956C677.186 304.14 675.983 302.522 675.621 300.709ZM744.413 398.435C744.059 398.001 743.77 397.52 743.552 397.01L612.649 394.614C612.612 395.326 612.444 396.044 612.134 396.733C612.087 396.837 612.038 396.939 611.986 397.04L684.405 460.419C686.091 459.015 688.494 458.606 690.63 459.566C690.755 459.623 690.878 459.683 690.998 459.747L744.413 398.435ZM683.108 461.942L610.773 398.636C609.894 399.455 608.787 399.983 607.613 400.16L599.729 485.126C599.937 485.193 600.144 485.273 600.349 485.365C601.794 486.015 602.851 487.172 603.404 488.532L682.296 465.439C682.218 464.476 682.375 463.481 682.799 462.538C682.892 462.331 682.996 462.133 683.108 461.942ZM675.61 370.288C674.438 369.761 673.521 368.9 672.922 367.867L612.383 392.528C612.392 392.555 612.4 392.582 612.408 392.61L742.056 394.982L682.848 368.347C681.239 370.588 678.224 371.464 675.61 370.288ZM672.639 362.457C672.778 362.148 672.941 361.856 673.124 361.583L607.756 307.02C606.757 307.759 605.543 308.17 604.294 308.185L608.504 388.651C608.726 388.721 608.946 388.805 609.163 388.902C610.107 389.327 610.886 389.969 611.466 390.742L672.221 365.993C672.001 364.84 672.121 363.61 672.639 362.457ZM597.746 484.845L605.608 400.119C605.168 400.033 604.73 399.896 604.304 399.704C603.03 399.131 602.058 398.164 601.466 397.011L499.592 431.331C499.514 431.865 499.362 432.397 499.13 432.913C499.099 432.981 499.068 433.048 499.035 433.114C499.011 433.162 498.987 433.209 498.962 433.256C498.951 433.278 498.939 433.3 498.927 433.322C498.911 433.351 498.895 433.381 498.878 433.41L593.23 487.147C594.323 485.728 595.995 484.897 597.746 484.845ZM285.338 337.559L341.652 384.637C342.469 383.854 343.49 383.326 344.584 383.105L340.76 301.488C340.105 301.434 339.448 301.27 338.815 300.985C338.04 300.636 337.377 300.142 336.843 299.548L286.456 330.885C287.171 332.398 287.243 334.202 286.503 335.847C286.209 336.5 285.811 337.075 285.338 337.559ZM285.307 329.244L335.776 297.856C335.543 297.296 335.396 296.701 335.343 296.093L263.186 288.135C262.675 289.07 261.94 289.819 261.08 290.344L279.106 327.841C280.498 327.343 282.077 327.362 283.532 328.016C284.214 328.323 284.81 328.743 285.307 329.244ZM489.32 426.527C490.546 425.16 492.349 424.439 494.172 424.576L513.434 343.031C513.201 342.843 512.985 342.64 512.786 342.423L447.353 393.662C447.888 395.078 447.885 396.698 447.215 398.187C447.131 398.372 447.04 398.55 446.941 398.722L489.32 426.527ZM496.112 425.062L515.254 344.028C517.235 344.7 519.372 344.259 520.917 342.988L601.224 392.129C600.839 393.104 600.73 394.126 600.865 395.104L499.521 429.244C499.138 427.466 497.945 425.886 496.159 425.082L496.112 425.062ZM602.261 390.419L522.236 341.45C522.351 341.258 522.456 341.056 522.55 340.847C523.189 339.426 523.222 337.888 522.759 336.52L599.327 305.589C599.922 306.467 600.76 307.196 601.798 307.663C601.955 307.734 602.114 307.797 602.274 307.853L606.487 388.385C604.875 388.453 603.335 389.181 602.261 390.419ZM598.499 303.766L521.801 334.75C521.595 334.488 521.365 334.242 521.113 334.015L572.393 250.597C573.561 250.88 574.76 250.793 575.843 250.391L601.223 297.158C600.201 297.758 599.35 298.67 598.827 299.832C598.248 301.118 598.166 302.501 598.499 303.766ZM570.538 249.795L519.422 332.948C518.807 332.692 518.173 332.548 517.541 332.506L499.977 267.731C500.98 267.13 501.816 266.228 502.332 265.081C502.74 264.174 502.901 263.218 502.844 262.289L568.65 247.798C569.104 248.587 569.743 249.277 570.538 249.795ZM498.102 268.457L515.527 332.721C513.907 333.183 512.494 334.33 511.748 335.987C511.7 336.095 511.655 336.203 511.613 336.312L437.209 334.92C437.337 333.371 436.845 331.833 435.862 330.648L493.921 267.752C494.107 267.861 494.301 267.962 494.502 268.052C495.675 268.58 496.93 268.694 498.102 268.457ZM436.684 336.911L511.226 338.305C511.211 339.145 511.375 339.973 511.699 340.734L446.329 391.924C445.777 391.272 445.074 390.73 444.243 390.356C443.46 390.004 442.64 389.836 441.834 389.834L432.198 340.287C434.1 339.995 435.821 338.784 436.684 336.911ZM351.671 389.201L435.938 396.508C435.803 395.459 435.947 394.362 436.413 393.328C437.107 391.784 438.38 390.684 439.861 390.166L430.152 340.242C429.721 340.157 429.293 340.021 428.875 339.833C428.309 339.578 427.801 339.245 427.361 338.852L351.16 386.492C351.537 387.335 351.717 388.263 351.671 389.201ZM492.394 266.459L434.342 329.347C434.148 329.232 433.945 329.126 433.735 329.031C432.495 328.474 431.166 328.378 429.939 328.669L416.133 257.677C417.554 257.14 418.769 256.061 419.441 254.566C419.544 254.338 419.631 254.107 419.703 253.873L491.077 261.745C490.813 263.443 491.309 265.164 492.394 266.459ZM414.17 258.059L428.059 329.478C427.33 329.955 426.699 330.596 426.23 331.379L346.893 297.365C347.258 296.214 347.251 295.016 346.927 293.915L409.28 255.661C409.864 256.451 410.652 257.106 411.611 257.537C412.443 257.912 413.315 258.078 414.17 258.059ZM345.976 299.148L425.502 333.243C425.215 334.639 425.449 336.067 426.11 337.276L350.048 384.829C349.533 384.287 348.907 383.835 348.184 383.51C347.662 383.275 347.123 383.122 346.584 383.045L342.753 301.311C344.017 300.977 345.163 300.229 345.976 299.148ZM20.6204 22.9688C20.5624 23.0978 20.5004 23.2236 20.4344 23.3463L63.5594 77.9677C64.9864 77.0677 66.7744 76.7917 68.4654 77.3137L104.027 10.5293C103.272 9.91918 102.692 9.14148 102.318 8.27668L21.1424 20.6331C21.1304 21.416 20.9614 22.2094 20.6204 22.9688ZM105.773 11.5057C107.527 12.1298 109.411 11.8747 110.904 10.9385L171.918 74.4007C171.702 74.7067 171.512 75.0377 171.353 75.3917C171.063 76.0367 170.898 76.7057 170.847 77.3727L72.5614 81.9757C72.3074 80.4977 71.4964 79.1367 70.2504 78.2157L105.773 11.5057ZM72.1244 85.4047C72.0314 85.6107 71.9284 85.8087 71.8154 85.9997L144.15 149.306C145.437 148.106 147.214 147.529 148.977 147.766L173.65 82.8657C172.332 82.0567 171.422 80.7877 171.037 79.3657L72.5614 83.9777C72.4784 84.4597 72.3334 84.9387 72.1244 85.4047ZM64.2934 88.3757C64.1674 88.3187 64.0444 88.2587 63.9244 88.1937L10.5103 149.505C10.8646 149.94 11.1537 150.42 11.3712 150.931L142.275 153.326C142.313 152.614 142.48 151.897 142.79 151.208C142.837 151.104 142.886 151.002 142.938 150.903L70.5184 87.5227C68.8334 88.9267 66.4294 89.3367 64.2934 88.3757ZM75.9234 242.985C77.7384 243.801 78.9414 245.419 79.3024 247.232L144.834 244.825C144.912 244.293 145.064 243.764 145.295 243.25C145.435 242.939 145.598 242.646 145.782 242.372L80.4164 187.809C79.5984 188.415 78.6354 188.802 77.6274 188.93L74.3334 242.522C74.8704 242.599 75.4044 242.751 75.9234 242.985ZM79.3564 249.231C79.3054 249.584 79.2224 249.935 79.1044 250.282L176.142 299.929C176.476 299.4 176.886 298.939 177.349 298.553L151.812 251.496C150.656 251.719 149.422 251.601 148.266 251.081C146.448 250.263 145.244 248.641 144.885 246.824L79.3564 249.231ZM82.0024 180.074C81.4024 179.041 80.4854 178.18 79.3134 177.653C76.7004 176.477 73.6844 177.353 72.0754 179.595L12.8663 152.958L142.516 155.331C142.524 155.358 142.532 155.386 142.541 155.413L82.0024 180.074ZM81.7994 186.358C81.9824 186.085 82.1454 185.794 82.2844 185.484C82.8034 184.332 82.9224 183.101 82.7024 181.948L143.458 157.199C144.038 157.972 144.817 158.614 145.761 159.038C145.978 159.136 146.198 159.219 146.419 159.289L150.629 239.757C149.38 239.771 148.166 240.183 147.167 240.922L81.7994 186.358ZM181.449 81.4337C180.062 83.2387 177.738 84.0947 175.506 83.6117L150.889 148.365C152.031 148.949 152.909 149.859 153.458 150.93L255.332 116.61C255.409 116.076 255.561 115.544 255.794 115.027L255.808 114.995L255.833 114.942L255.85 114.905L181.449 81.4337ZM413.271 163.305L469.585 210.383C469.112 210.867 468.714 211.441 468.42 212.095C467.687 213.725 467.751 215.511 468.448 217.015L418.152 247.872C417.674 247.411 417.11 247.024 416.47 246.736C415.716 246.397 414.929 246.228 414.152 246.214L410.338 164.837C411.432 164.616 412.454 164.088 413.271 163.305ZM408.297 250.69C408.026 251.759 408.067 252.857 408.377 253.869L346.043 292.111C345.456 291.298 344.654 290.624 343.674 290.183C342.712 289.75 341.695 289.595 340.714 289.685L326.863 218.464C327.592 217.987 328.224 217.345 328.693 216.562L408.297 250.69ZM329.421 214.698L409.106 248.861C409.85 247.736 410.939 246.929 412.164 246.52L408.339 164.897C407.799 164.82 407.261 164.667 406.739 164.432C406.016 164.107 405.39 163.654 404.875 163.112L328.814 210.665C329.474 211.874 329.709 213.302 329.421 214.698ZM327.562 209.089L403.763 161.449C403.386 160.606 403.206 159.678 403.252 158.74L318.985 151.433C319.12 152.481 318.976 153.578 318.511 154.613C317.816 156.156 316.542 157.257 315.061 157.775L324.77 207.698C325.201 207.784 325.63 207.919 326.048 208.108C326.615 208.363 327.122 208.696 327.562 209.089ZM322.724 207.654L313.088 158.107C312.282 158.104 311.463 157.936 310.68 157.584C309.849 157.21 309.146 156.668 308.594 156.016L243.224 207.206C243.548 207.968 243.712 208.796 243.697 209.636L318.239 211.03C319.102 209.157 320.823 207.946 322.724 207.654ZM243.31 211.629L317.715 213.021C317.587 214.57 318.079 216.108 319.061 217.293L261.002 280.189C260.816 280.08 260.622 279.979 260.421 279.889C259.248 279.361 257.993 279.247 256.821 279.484L239.396 215.22C241.016 214.758 242.43 213.611 243.175 211.953C243.208 211.879 243.24 211.805 243.27 211.73L243.288 211.685C243.295 211.666 243.303 211.648 243.31 211.629ZM235.502 214.993C236.116 215.248 236.75 215.393 237.382 215.435L254.946 280.21C253.943 280.81 253.107 281.713 252.591 282.86C252.182 283.768 252.021 284.723 252.079 285.652L186.273 300.143C185.819 299.354 185.181 298.664 184.385 298.146L235.502 214.993ZM233.122 213.19C233.328 213.453 233.558 213.699 233.81 213.926L182.53 297.344C181.362 297.061 180.163 297.149 179.081 297.551L153.701 250.784C154.722 250.183 155.574 249.272 156.097 248.11C156.675 246.823 156.757 245.44 156.424 244.175L233.122 213.19ZM232.687 206.491C232.572 206.683 232.467 206.885 232.373 207.094C231.734 208.514 231.701 210.053 232.164 211.42L155.596 242.352C155.001 241.475 154.163 240.746 153.125 240.279C152.968 240.208 152.809 240.145 152.649 240.089L148.436 159.556C150.048 159.488 151.588 158.76 152.663 157.523L232.687 206.491ZM234.006 204.953L153.699 155.812C154.085 154.837 154.194 153.815 154.06 152.837L255.403 118.697C255.785 120.475 256.979 122.054 258.765 122.858L258.81 122.878L239.669 203.912C237.687 203.241 235.55 203.682 234.006 204.953ZM241.489 204.909L260.75 123.364C262.404 123.488 264.041 122.907 265.246 121.778L307.75 149.665C307.736 149.694 307.722 149.724 307.709 149.753C307.039 151.243 307.035 152.862 307.57 154.278L242.137 205.517C241.938 205.3 241.722 205.097 241.489 204.909ZM320.582 218.594L262.53 281.483C263.614 282.777 264.109 284.498 263.846 286.196L335.511 294.099C335.594 293.781 335.704 293.465 335.844 293.154C336.456 291.794 337.519 290.777 338.776 290.201L324.983 219.272C323.756 219.563 322.427 219.467 321.189 218.909C320.978 218.815 320.776 218.709 320.582 218.594Z" fill="url(#paint0_linear)"/>
  <defs>
    <linearGradient id="paint0_linear" x1="434.854" y1="129.789" x2="320.041" y2="418.116" gradientUnits="userSpaceOnUse">
      <stop stop-color="#2196F3" stop-opacity="0.3"/>
      <stop offset="1" stop-color="#BBDEFB" stop-opacity="0.1"/>
    </linearGradient>
  </defs>
</svg>
