<svg width="216" height="216" fill="none" xmlns="http://www.w3.org/2000/svg"><path d="M126.328 59.221c-4.638-.269-7.201-5.705-7.201-5.705-2.638-4.621-6.226-6.285-10.856-3.647l-16.713 9.537c-4.621 2.639-6.075 4.865-4.58 10.41 0 0 2.522 5.219 1.967 8.815-.555 3.596-19.2 18.771-18.175 49.928.941 28.619 13.848 42.139 37.459 52.777 26.417 11.906 64.834 4.36 84.025-31.93 20.066-37.896-.781-68.952-27.938-83.101-19.998-10.487-33.35-6.815-37.988-7.084z" fill="#191919"/><path d="M133.294 193.259a67.963 67.963 0 01-27.83-5.882c-28.468-12.822-40.466-29.829-41.416-58.683-.84-26.427 11.05-42.257 16.805-49.861a77.357 77.357 0 001.462-1.975 17.01 17.01 0 00-1.336-4.134 6.722 6.722 0 01-.453-1.21C77.71 61.078 83.18 56.39 88.264 53.508l16.721-9.537c7.68-4.387 15.352-2.025 20.024 6.15.085.14.161.287.227.437a5.509 5.509 0 001.604 1.9c.471 0 1.53-.068 2.471-.135 6.537-.48 20.166-1.48 38.173 7.915 18.006 9.394 31.56 24.645 36.887 41.744 4.991 16.032 2.882 33.484-6.109 50.466-15.15 28.61-40.903 40.811-64.968 40.811zM93.323 67.539c1.025 2.261 3.025 7.454 2.235 12.201-.404 2.437-1.84 4.344-4.017 7.235-5.167 6.865-14.788 19.645-14.074 41.332.773 23.527 9.856 36.215 33.501 46.869 23.527 10.588 57.894 4.025 75.363-28.972 7.377-13.939 9.116-27.459 5.15-40.172-4.268-13.696-15.292-26.048-30.249-33.812-14.646-7.63-24.871-6.882-30.98-6.428-1.438.14-2.883.188-4.327.143-7.756-.454-11.814-7.445-12.73-9.243a6.086 6.086 0 00-.967-1.302c-.22.083-.434.184-.638.302L94.869 65.23c-.606.334-1.183.719-1.723 1.151.03.39.088.778.177 1.16z" fill="#191919"/><path d="M63.704 55.894c-1.63 11.074-10.714 11.25-12.755 11.125-7.462-.462-12.52-4.697-7.008-8.025.361-.218.37-.395-.412-.411-54.76-1.084-46.836-13.21-.185-17.184.37 0 .404-.109.27-.327-11.823-19.326-11.252-31.3 11.284-8.403.16.16.37.126.42-.075 3.697-15.1 12.385 8.73 10.41 15.3a56.36 56.36 0 00-2.024 8z" fill="#448AFF"/><path d="M97.868 66.573c-1.268-12.435-7.965-21.535-21.35-14.191-14.394 7.923-24.628 1.983-22.074-3.504 2.991-6.437 5.714 3.083 18.1-3.731 28.828-15.847 39.264 24.157 29.853 25.115a4.129 4.129 0 01-4.056-2.147 4.126 4.126 0 01-.473-1.542z" fill="#191919"/><path d="M126.328 59.221c-4.638-.269-7.201-5.705-7.201-5.705-2.638-4.621-6.226-6.285-10.856-3.647l-16.713 9.537c-4.621 2.639-6.075 4.865-4.58 10.41 0 0 2.522 5.219 1.967 8.815-.555 3.596-19.2 18.771-18.175 49.928.941 28.619 13.848 42.139 37.459 52.777 26.417 11.906 64.834 4.36 84.025-31.93 20.066-37.896-.781-68.952-27.938-83.101-19.998-10.487-33.35-6.815-37.988-7.084z" fill="#448AFF"/><path d="M118.001 97.033c-3.537 2.697 1.681 51.213 4.126 53.894 2.445 2.68 41.172-26.611 40.794-31.207-.378-4.597-41.383-25.385-44.92-22.687z" fill="#fff"/></svg>
