
<svg width="216" height="216" fill="none" xmlns="http://www.w3.org/2000/svg"><path d="M26.695 196.737c-2.622-2.705-2.235-108.04 0-110.913 1.538-1.966 156.775-1.966 159.867 0 2.857 1.815 2.084 109.174 0 110.913-4.621 3.824-156.607 3.361-159.867 0z" fill="#191919"/><path d="M109.88 206.157h-3.773c-20.25 0-39.39-.294-53.919-.74-27.266-.84-28.224-1.831-30.325-3.991-2.1-2.159-3.814-3.966-3.713-60.095 0-14.024.21-27.359.512-37.543.58-19.325 1.252-20.166 2.74-22.09 2.192-2.806 5.116-2.924 12.2-3.218 4.302-.177 10.419-.336 18.175-.462 14.368-.236 33.61-.37 54.272-.37s40.004.134 54.557.37c26.889.437 27.603.907 29.561 2.15 3.361 2.127 3.73 5.765 4.159 12.554.84 13.696.933 41.383.731 60.927-.471 45.181-1.412 45.962-4.201 48.273-2.051 1.68-3.412 2.823-30.56 3.63-13.495.386-31.283.605-50.416.605zm-77.345-15.125c22.208 2.202 126.181 2.235 148.061.059 1.185-16.998 1.681-81.505.261-99.15-22.83-1.193-125.064-1.193-148.28 0-1.328 18.032-1.361 82.345-.042 99.091z" fill="#191919"/><path d="M26.695 196.737c-2.622-2.705-2.235-108.04 0-110.913 1.538-1.966 156.775-1.966 159.867 0 2.857 1.815 2.084 109.174 0 110.913-4.621 3.824-156.607 3.361-159.867 0z" fill="#448AFF"/><path d="M187.554 103.78c.621-.924.789-26.216-.841-26.888-4.705-2.067-156.464-1.924-160.32.412-1.463.84-1.58 25.468-.925 26.51.656 1.042 161.464.89 162.086-.034z" fill="#191919"/><path d="M101.142 111.25c-23.838 0-48.55-.084-63.33-.336a568.517 568.517 0 01-9.176-.194c-3.983-.134-6.865-.226-8.848-3.361-.966-1.537-1.555-2.47-1.386-15.124.067-5.353.31-12.41 1.083-15.637a7.78 7.78 0 013.47-5.084c1.875-1.126 2.908-1.748 29.35-2.294 14.285-.294 33.418-.479 53.954-.52 20.225 0 39.45.066 54.104.302 26.149.412 27.501 1 29.056 1.68a7.35 7.35 0 014.134 4.941c.269.924 1.101 3.722 1.168 16.2.067 13.209-.546 14.142-1.58 15.679-2.033 3.034-4.319 3.092-10.444 3.244-3.101.075-7.563.151-13.343.21-10.756.117-25.485.201-42.61.252-8.041.033-16.755.042-25.602.042zM31.804 97.402c24.636.53 124.643.496 149.439-.042.076-4.36 0-10.394-.218-14.351-23.057-1.26-126.408-1.025-148.894.344-.252 3.89-.36 9.78-.327 14.05z" fill="#191919"/><path d="M187.554 103.78c.621-.924.789-26.216-.841-26.888-4.705-2.067-156.464-1.924-160.32.412-1.463.84-1.58 25.468-.925 26.51.656 1.042 161.464.89 162.086-.034z" fill="#fff"/><path d="M23.737 105.544s32.678-30.618 32.224-31.602c-.664-1.394-31.93-1.277-32.635-.36-.706.915-5.513 34.114.411 31.962zM185.982 43.332c.479-1.008-3.126-25.166-4.815-25.611-4.974-1.328-155.346 20.603-158.841 23.451-1.32 1.11 2.184 25.452 2.99 26.385.808.932 160.196-23.217 160.666-24.225z" fill="#191919"/><path d="M25.678 74.279a6.596 6.596 0 01-5.47-2.345c-1.176-1.352-1.89-2.193-3.596-14.755-.723-5.302-1.521-12.326-1.235-15.628a7.78 7.78 0 012.68-5.546c1.68-1.395 2.63-2.16 28.762-6.512 14.066-2.344 33.03-5.277 53.398-8.268 20.032-2.941 39.089-5.596 53.667-7.478 25.964-3.361 27.376-2.966 29.014-2.521a7.408 7.408 0 014.857 4.31c1.084 2.336 2.277 7.504 3.546 15.36 2.033 12.604 1.554 13.637.756 15.318-1.563 3.294-3.697 3.672-10.024 4.781-3.159.555-7.739 1.32-13.612 2.269-10.991 1.773-25.973 4.117-43.324 6.772-30.316 4.664-69.413 10.461-88.42 13.007-3.36.454-5.966.782-7.755.983a29.404 29.404 0 01-3.244.253zm3.218-27.922c.32 3.89 1.084 9.705 1.748 13.915 24.494-3.135 123.618-18.1 148.129-22.343-.572-4.117-1.504-9.654-2.303-13.318-22.913 2.042-125.425 17.15-147.574 21.746z" fill="#191919"/><path d="M185.982 43.332c.479-1.008-3.126-25.166-4.815-25.611-4.974-1.328-155.346 20.603-158.841 23.451-1.32 1.11 2.184 25.452 2.99 26.385.808.932 160.196-23.217 160.666-24.225z" fill="#fff"/><path d="M22.326 41.172s33.912 23.822 33.61 24.847c-.446 1.479-31.384 5.957-32.224 5.15-.84-.806-7.57-31.223-1.386-29.996zM54.306 32.72c-.152.84 36.794 28.88 38.651 28.568l31.787-4.722c1.614-.244-37.727-29.569-39.61-29.291-1.882.277-30.677 4.596-30.828 5.445zM119.762 22.99c-.152.84 36.794 28.879 38.651 28.568l31.787-4.722c1.614-.244-37.727-29.569-39.609-29.291-1.882.277-30.678 4.604-30.829 5.444zM59.28 105.679c-.269-.84 32.14-33.972 34.039-33.972h32.14c1.63 0-32.955 34.787-34.863 34.787-1.907 0-31.047 0-31.316-.815zM125.458 105.679c-.268-.84 32.14-33.972 34.039-33.972 1.899 0 28.871.547 28.871 2.177 0 .546-29.686 32.618-31.593 32.618-1.908 0-31.048-.008-31.317-.823z" fill="#191919"/><path d="M108.62 183.083c-12.705 0-25.35-.101-34.694-.269-16.99-.311-17.545-.672-18.536-1.319-1.63-1.05-2.05-2.647-2.378-8.957-.286-5.646-.37-14.562-.202-22.687.311-15.242 1.017-15.813 2.302-16.805 1.152-.924 1.244-1 17.646-1.168 8.873-.092 20.78-.143 33.518-.143 48.995 0 50.322.53 51.028.84 2.37.95 2.706 3.303 3.008 9.319.278 5.588.337 14.562.143 22.863-.092 4-.235 7.453-.411 9.974-.278 4.042-.505 6.025-2.446 7.033-.882.361-2.73 1.319-48.978 1.319z" fill="#fff"/><path d="M106.276 135.029c24.367 0 48.827.193 49.785.571 1.764.706 1.294 42.408 0 43.08-1.294.673-24.116 1.051-47.433 1.051-24.855 0-50.373-.37-51.415-1.051-1.622-1.05-1.386-41.962 0-43.08.479-.378 24.712-.571 49.063-.571zm0-6.722c-12.756 0-24.67.05-33.56.143-4.798.05-8.58.109-11.243.185-4.89.126-6.537.168-8.478 1.731-2.672 2.151-2.89 5.276-3.16 9.242-.176 2.588-.31 6.101-.394 10.176-.168 8.234-.084 17.25.21 22.964.277 5.445.479 9.369 3.907 11.587 1.857 1.202 2.353 1.521 20.309 1.857 9.36.177 22.031.269 34.761.269 12.285 0 23.67-.092 32.073-.252 16.091-.319 16.881-.731 18.485-1.546 3.698-1.924 3.966-5.739 4.244-9.781.176-2.571.319-6.066.42-10.083.193-8.402.134-17.435-.151-23.107-.11-2.142-.244-3.806-.412-5.041-.21-1.538-.756-5.63-4.706-7.201-1.42-.563-1.848-.74-18.544-.908-8.999-.092-21.006-.143-33.736-.143l-.025-.092z" fill="#191919"/><path d="M70.161 146.104c-4.41 0-4.621 6.512-.42 6.831 4.202.319 66.7.319 69.641 0 2.941-.319 4.411-6.302-.311-6.613-4.722-.311-63.448-.218-68.91-.218zM70.161 159.968c-4.41 0-4.621 6.512-.42 6.831 4.202.319 36.451.319 39.391 0 2.941-.319 4.412-6.302-.31-6.613-4.723-.311-33.199-.218-38.66-.218z" fill="#191919"/></svg>
