<svg width="216" height="216" fill="none" xmlns="http://www.w3.org/2000/svg"><g clip-path="url(#prefix__clip0)"><path d="M109.029 119.581l-71.69-39.34a1.942 1.942 0 00-2.883 1.68c-.344 15.125-1.68 78.606.076 80.665 2.781 3.26 71.489 42.987 74.505 42.987 3.017 0 71.027-40.971 74.506-42.987 3.075-1.773.722-65.708.126-80.732a1.943 1.943 0 00-.992-1.61 1.947 1.947 0 00-1.89-.012l-71.758 39.349z" fill="#191919"/><path d="M109.029 212.27c-2.076 0-4.042 0-40.702-21.174-36.064-20.83-38.14-23.259-38.92-24.175-2-2.352-2.757-3.235-2.43-39.87.16-18.04.58-37.702.757-45.315a8.663 8.663 0 0112.84-7.394l68.463 37.568 68.515-37.593a8.668 8.668 0 0111.58 3.11 8.665 8.665 0 011.25 4.183c.303 7.638 1.034 27.367 1.32 45.5.159 10.285.142 18.486 0 24.46-.32 10.217-.841 14.595-4.756 16.864-.563.328-2.857 1.68-6.302 3.756-67.237 40.08-68.792 40.08-71.615 40.08zm-68.288-53.432c10.025 6.823 57.272 34.123 68.279 39.492 6.722-3.361 28.477-16.049 64.7-37.694l4.134-2.47c.84-7.697.647-34.249-.596-68.313l-64.994 35.619a6.726 6.726 0 01-6.47 0L41.002 89.92c-.74 35.073-.849 61.339-.26 68.918z" fill="#191919"/><path d="M34.523 76.98l74.506-39.735 74.505 39.735-74.505 40.879L34.523 76.98z" fill="#fff"/><path d="M109.365 34.556v80.614L34.859 74.283l74.506-39.727z" fill="#E6E6E6"/><path d="M109.029 119.581L34.523 78.695s-2 81.504 0 83.865c2.782 3.261 71.489 42.988 74.506 42.988 3.016 0 71.027-40.971 74.505-42.988 3.479-2.016 0-83.865 0-83.865l-74.505 40.886z" fill="#448AFF"/><path d="M109.029 119.581c-.84 1.731-1.681 86.387 0 85.967 5.335-1.311 71.69-39.433 74.783-43.483 1.327-1.756 2.008-82.287-.261-83.37-2.269-1.084-73.657 39.156-74.522 40.886z" fill="#2F72E2"/><path d="M183.097 74.048c3.857-2.126 24.754-13.721 23.653-14.36-1.1-.639-73.665-38.601-75.497-39.156-1.68-.512-20.569 11.848-23.636 13.864-3.159-2.193-25.897-17.847-28.485-16.402-2.78 1.513-70.069 39.056-72.48 40.45-2.218 1.32 22.51 13.747 26.334 15.663-3.571 1.806-24.948 12.26-23.628 13.015 1.319.757 70.43 41.543 74.127 41.946 2.378.26 21.679-11.965 24.216-13.646 2.84 1.882 26.048 17.209 28.367 15.898l73.212-42.013c1.352-.74-21.78-12.974-26.183-15.259zm-75.396 41.055L33.969 74.09l73.598-39.257 74.203 39.14-74.069 41.13z" fill="#191919"/><path d="M135.808 138.168c-3.361 0-7.957-2.252-17.2-7.84a383.297 383.297 0 01-10.924-6.89 422.96 422.96 0 01-8.68 5.319c-11.267 6.63-13.73 7.268-16.25 6.999-2.151-.235-4.823-.521-75.094-41.828l-1.68-.983a6.823 6.823 0 01-3.412-6.125c.143-4.638 3.874-6.613 12.05-10.923 1.16-.614 2.37-1.244 3.57-1.858l-3.007-1.672C3.199 65.847-.07 63.427-.204 58.873a6.974 6.974 0 013.503-6.252c1.849-1.067 39.308-21.972 70.405-39.324l2.16-1.201c4.336-2.42 9.243-.269 20.872 7.008 4.042 2.52 8.075 5.21 10.974 7.175 20.922-13.612 22.51-13.124 25.518-12.2 2.874.84 76.295 39.416 76.892 39.77a6.876 6.876 0 013.395 5.915c-.042 4.562-2.958 6.251-13.789 12.545l-2.697 1.563 4.008 2.21c12.041 6.721 14.889 8.46 14.973 13.032a6.822 6.822 0 01-3.42 6.05l-66.506 38.13-6.722 3.849a6.983 6.983 0 01-3.554 1.025zm-15.335-22.485c6.344 3.982 11.764 7.133 14.595 8.469l4.378-2.52 57.053-32.712c-3.621-2.041-8.352-4.63-14.032-7.646l-61.994 34.409zM22.407 86.988c37.181 21.788 55.608 32.106 61.288 34.904 2.445-1.193 6.848-3.747 11.075-6.31l-61.423-34.14c-4.63 2.31-8.2 4.126-10.94 5.546zm25.62-12.772l59.657 33.173 59.936-33.257-60.062-31.678-59.532 31.762zM19.078 59.192c3.849 2.16 8.865 4.823 14.285 7.562l61.574-32.837a154.638 154.638 0 00-14.772-8.84 73376.054 73376.054 0 00-61.095 34.115h.008zM120.498 34.06l61.91 32.653a598.908 598.908 0 0011.209-6.378c-17.595-9.243-53.171-27.729-62.674-32.526-2.202 1.184-5.949 3.386-10.445 6.251z" fill="#191919"/><path d="M183.937 74.048c.068-1.092 23.914-13.721 22.813-14.36-1.1-.639-73.665-38.601-75.497-39.156-1.68-.512-23.14 13.805-23.636 13.864-.496.06-25.905-17.88-28.485-16.435-2.78 1.546-70.069 39.089-72.48 40.483-2.218 1.32 26.275 14.957 26.334 15.663.058.706-24.948 12.26-23.637 13.015 1.31.757 70.439 41.543 74.136 41.946 2.378.26 23.46-13.646 24.216-13.646.756 0 26.048 17.209 28.367 15.898l73.212-42.013c1.352-.74-25.41-14.192-25.343-15.259zm-76.236 41.055c-.84-.067-73.707-40.45-73.724-40.988-.017-.538 73.102-39.18 73.598-39.256.496-.076 74.211 38.088 74.203 39.139-.008 1.05-73.228 41.147-74.077 41.08v.025zM61.033 157.805l-.37-29.981c0-1.873 1.723-2.268 3.118-.689l21.376 24.216c1.336 1.521 1.361 3.756.05 4.109l-21.006 5.722c-1.37.412-3.142-1.504-3.168-3.377z" fill="#fff"/><path d="M108.525 119.985c-.563 14.427-.841 65.262.512 85.563l-.512-85.563z" fill="#D32920"/><path d="M109.029 208.909a3.36 3.36 0 01-3.361-3.134c-1.378-20.738-1.067-71.607-.513-85.916a3.36 3.36 0 012.195-3.025 3.372 3.372 0 012.573.1 3.355 3.355 0 011.954 3.185c-.537 13.814-.84 65.061.504 85.211a3.347 3.347 0 01-1.865 3.239 3.364 3.364 0 01-1.269.34h-.218z" fill="#191919"/></g><defs><clipPath id="prefix__clip0"><path fill="#fff" transform="translate(.409 .105)" d="M0 0h215.105v215.105H0z"/></clipPath></defs></svg>
