<svg width="216" height="216" fill="none" xmlns="http://www.w3.org/2000/svg"><path d="M113.995 179.618c-1.614-18.293-15.276-18.965-17.369-21.713-2.092-2.747 1.48-121.257-1.041-122.324-2.521-1.067-19.973 4.773-20.688 28.098-.714 23.326-1.68 61.154.605 67.221 2.286 6.066 4.143 17.09 2.849 26.333-1.294 9.243-4.655 15.747-5.134 24.368-.445 8.192 5.193 17.645 18.217 19.191 11.494 1.311 23.611-9.663 22.561-21.174zm-10.083 0c-.177 4.831-5.933 10.52-11.218 10.268-7.327-.345-8.974-6.143-9.377-10.554-.403-4.411 4.873-11.091 10.335-10.68 5.882.404 10.47 4.622 10.26 10.932v.034z" fill="#191919"/><path d="M93.324 207.598a23.164 23.164 0 01-2.672-.151c-16.696-1.941-24.787-14.671-24.149-26.233.303-5.478 1.58-10.083 2.824-14.561a77.992 77.992 0 002.36-10.361c1.085-7.739-.47-17.645-2.52-22.989-1.756-4.68-2.605-18.343-1.025-69.825.563-18.486 10.083-27.3 15.771-30.93 2.017-1.294 9.016-5.353 14.285-3.151 4.403 1.857 4.588 6.251 4.814 11.822.143 3.496.219 8.403.244 15.04 0 12.184-.134 28.309-.302 43.913-.219 20.502-.479 45.424-.076 53.641 5.041 2.32 16.276 7.731 17.822 25.208.647 7.285-2.345 14.73-8.193 20.418a27.948 27.948 0 01-19.183 8.159zm-3.31-28.787c.411 4.201 1.605 4.269 2.991 4.327 1.386.059 4.058-2.52 4.201-3.814.118-3.361-2.79-3.916-4.041-4.008-.975.067-2.958 2.277-3.143 3.495h-.008zm-.328-133.853a18.503 18.503 0 00-1.823 1.68c-3.908 4.16-6.025 9.958-6.252 17.243-1.47 48.222-.706 61.834.202 64.758 2.52 6.806 4.663 18.99 3.193 29.51a71.197 71.197 0 01-1.462 7.361 16.094 16.094 0 017.764-3.496c-2.126-2.789-2.404-3.151-1.782-61.96.177-18.797.437-42.887.16-55.096z" fill="#191919"/><path d="M113.994 179.618c-1.613-18.293-15.275-18.965-17.368-21.713-2.092-2.747 1.48-121.257-1.042-122.324-2.52-1.067-19.972 4.773-20.687 28.098-.714 23.326-1.68 61.154.605 67.221 2.286 6.066 4.143 17.09 2.849 26.333-1.294 9.243-4.655 15.747-5.134 24.368-.446 8.192 5.193 17.645 18.216 19.191 11.495 1.311 23.612-9.663 22.561-21.174zm-10.083 0c-.176 4.831-5.932 10.52-11.217 10.268-7.327-.345-8.974-6.143-9.377-10.554-.404-4.411 4.873-11.091 10.335-10.68 5.882.404 10.469 4.622 10.259 10.932v.034z" fill="#fff"/><path d="M100.945 14.986c14.285.748 98.109 66.994 97.521 79.968-.589 12.973-44.122 69.447-57.272 66.38-13.15-3.067-94.294-62.549-95.394-76.732-1.101-14.184 40.013-70.406 55.145-69.616z" fill="#191919"/><path d="M142.303 168.215a11.57 11.57 0 01-2.622-.294c-10.083-2.319-40.257-24.191-54.818-35.433C40.086 97.911 39.338 88.29 39.094 85.123c-.512-6.193 3.546-16.117 11.965-29.435a207.174 207.174 0 0125.082-32.173c6.596-6.764 16.36-15.704 25.157-15.242 3.244.168 8.974 1.68 24.687 12.091 9.898 6.546 21.83 15.351 33.501 24.796 46.306 37.29 45.836 46.937 45.693 50.104-.622 13.613-30.636 53.037-48.55 66.641-5.604 4.26-10.234 6.31-14.326 6.31zM52.496 83.913c1.244 3.722 13.318 17.015 42.013 39.029 24.367 18.688 43.433 30.443 47.895 31.804 2.764-.504 12.856-7.369 28.182-26.384 14.914-18.486 20.435-30.25 21.09-33.308-1.63-4.083-14.091-18.191-42.097-40.61-26.711-21.375-44.962-32.139-49.012-32.77-1.495.102-7.562 3-18.645 15.294a198.059 198.059 0 00-21.006 28.266c-6.882 11.402-8.394 17.158-8.42 18.679z" fill="#191919"/><path d="M100.945 14.986c14.285.748 98.108 66.994 97.52 79.968-.588 12.973-44.122 69.447-57.272 66.38-13.15-3.067-94.293-62.549-95.394-76.732-1.1-14.184 40.013-70.406 55.146-69.616z" fill="#448AFF"/><path d="M115.591 63.343c-3.983 4.008-9.445 4.479-14.461 0-4.201-3.74-4.025-10.461 0-14.46 4.025-4 9.167-4.48 14.461 0 4.336 3.663 3.983 10.452 0 14.46zM168.468 109.515c-4.764 3.033-10.192 2.302-14.124-3.126-3.311-4.579-1.639-11.083 3.125-14.124 4.765-3.042 9.924-2.361 14.125 3.126 3.462 4.537 1.63 11.091-3.126 14.124zM87.88 87.912c-1.614.126-7.69 9.705-6.798 10.713.89 1.009 59.254 32.854 60.196 32.922.941.067 5.285-6.109 4.134-7.092-1.152-.983-56.197-36.652-57.533-36.543z" fill="#fff"/><path d="M20.483 160.939c7.923 10.453 18.947 10.503 25.778 5.949 7.185-4.781 11.075-10.982 18.385-16.805 7.31-5.823 15.654-7.184 24.015-10.495 13.049-5.109 38.912-20.754 58.322-34.022 19.267-13.175 15.881-30.46 13.696-32.09-2.185-1.63-102.511 61.617-105.872 61.205-3.361-.412-10.923-11.831-27.519-3.941-10.477 5-13.796 20.981-6.805 30.199zm26.568-18.225c3.126 4.503.05 12.435-3.957 14.326-4.008 1.891-10.083 2.949-14.285-3.361-2.915-4.42-.52-11.671 3.555-14.284 5.377-3.353 11.326-1.488 14.687 3.319z" fill="#191919"/><path d="M36.632 176.484c-7.445 0-15.368-3.361-21.502-11.487-4.63-6.108-6.201-14.662-4.201-22.88 1.932-7.932 6.831-14.284 13.444-17.427 15.855-7.562 26.207-.622 30.778 2.521 7.285-3.823 28.628-16.704 46.214-27.3 13.302-8.024 27.124-16.36 37.619-22.502 5.722-3.361 9.999-5.781 13.082-7.428 4.916-2.63 8.789-4.714 12.604-1.857 4.159 3.092 4.47 9.982 4.42 12.806-.109 5.394-2.109 19.132-18.334 30.249-18.746 12.814-45.374 29.157-59.659 34.736-2.52.992-5.041 1.807-7.402 2.588-5.621 1.832-10.562 3.445-14.864 6.865a78.083 78.083 0 00-7.73 7.293c-3.219 3.361-6.546 6.79-11.117 9.823a24.18 24.18 0 01-13.352 4zm1.496-32.065a3.888 3.888 0 00-2.1.681 5.192 5.192 0 00-1.631 2.941 3.126 3.126 0 00.067 1.966c.731 1.101 1.832 2.765 5.664 1 .949-.773 1.84-3.596 1.403-4.479-.538-.747-1.723-2.109-3.403-2.109zm15.805-3.041a16.08 16.08 0 01.933 8.461 71.14 71.14 0 015.562-4.991c6.184-4.916 12.722-7.067 19.049-9.142 2.319-.765 4.512-1.487 6.722-2.336 12.688-4.966 38.265-20.519 56.977-33.316 8.571-5.882 11.378-12.108 12.167-16.562-10.721 6.017-31.156 18.343-47.104 27.973-50.332 30.392-50.794 30.341-54.28 29.921l-.026-.008z" fill="#191919"/><path d="M20.483 160.939c7.923 10.453 18.947 10.503 25.778 5.949 7.185-4.781 11.075-10.982 18.385-16.805 7.31-5.823 15.654-7.184 24.015-10.495 13.049-5.109 38.912-20.754 58.322-34.022 19.267-13.175 15.881-30.46 13.696-32.09-2.185-1.63-102.511 61.617-105.872 61.205-3.361-.412-10.923-11.831-27.519-3.941-10.477 5-13.796 20.981-6.805 30.199zm26.568-18.225c3.126 4.503.05 12.435-3.957 14.326-4.008 1.891-10.083 2.949-14.285-3.361-2.915-4.42-.52-11.671 3.555-14.284 5.377-3.353 11.326-1.488 14.687 3.319z" fill="#fff"/></svg>
