<svg width="216" height="216" fill="none" xmlns="http://www.w3.org/2000/svg"><path d="M25.593 48C41.071 36.976 183.1 36.791 193.191 50.84c10.091 14.05 11.343 109.158-4.857 116.888-16.2 7.73-149.893 12.68-162.74-1.252-12.848-13.931-16.42-106.712 0-118.476z" fill="#191919"/><path d="M95.393 182.029c-64.615 0-72.17-8.192-74.782-10.974-5.277-5.722-9.067-18.989-11.243-39.433-1.908-17.872-2.059-38.047-.412-53.97 1.958-18.93 6.109-30.408 12.696-35.105L25.593 48l-3.899-5.478c3.034-2.16 9.915-5.277 34.619-7.403 15.637-1.344 35.224-2 55.154-1.823 20.536.201 39.778 1.26 54.247 2.94 24.368 2.908 30.308 7.025 32.93 10.68 6.352 8.848 8.092 34.03 8.562 48.248.773 23.46-.907 45.836-4.512 59.843-2.655 10.352-6.302 16.317-11.478 18.779-11.184 5.336-57.221 7.789-85.437 8.142-3.608.068-7.07.101-10.386.101zM29.492 53.504c-.202.143-4.865 3.714-7.125 25.535-1.555 15.04-1.404 34.165.411 51.155 2.219 20.83 5.882 29.753 7.756 31.736 3.36 2.983 26.485 7.26 76.186 6.571 43.122-.596 73.295-4.319 78.656-6.789.278-.227 3.294-2.933 5.739-16.805 2.521-14.091 3.42-34.241 2.471-53.903-1.042-21.56-3.941-33.207-5.731-36.047-3.941-3.083-28.51-7.965-78.824-8.234-47.357-.244-75.464 3.882-79.539 6.722v.059z" fill="#191919"/><path d="M25.593 48C41.071 36.976 183.1 36.791 193.191 50.84c10.091 14.05 11.343 109.158-4.857 116.888-16.2 7.73-149.893 12.68-162.74-1.252-12.848-13.931-16.42-106.712 0-118.476z" fill="#448AFF"/><path d="M70.967 80.585c-5.529 6.277-5.882 48.97 1.252 55.247 3.52 3.1 54.054 2.874 56.549 0 2.496-2.874 2.672-16.679 5.529-13.814 2.857 2.865 11.764 10.587 14.452 12.554 2.689 1.966 5.882 2.772 6.958-3.588 1.067-6.101.714-46.458.176-50.769-.487-3.924-5.176-3.588-8.209-.714-3.034 2.874-11.957 10.587-14.091 12.554-2.135 1.966-1.966-9.865-4.991-12.377-3.025-2.513-52.987-4.353-57.625.907z" fill="#fff"/></svg>
